<mxfile host="app.diagrams.net" modified="2021-01-13T10:25:16.629Z" agent="5.0 (Windows NT 10.0; Win64; x64) AppleWebKit/537.36 (KHTML, like Gecko) Chrome/87.0.4280.66 Safari/537.36" etag="M_-s39iQHLOalwS1UFcX" version="14.1.9" type="github">
  <diagram id="XjHLATgaNIMUa8NQz7aA" name="Page-1">
    <mxGraphModel dx="1775" dy="537" grid="1" gridSize="10" guides="1" tooltips="1" connect="1" arrows="1" fold="1" page="1" pageScale="1" pageWidth="850" pageHeight="1100" math="0" shadow="0">
      <root>
        <mxCell id="0" />
        <mxCell id="1" parent="0" />
        <mxCell id="RDKQKIn17CvpiuSBsltc-6" value="Eth1/52" style="text;html=1;align=center;verticalAlign=middle;resizable=0;points=[];autosize=1;" parent="1" vertex="1">
          <mxGeometry x="350" y="430" width="60" height="20" as="geometry" />
        </mxCell>
        <mxCell id="RDKQKIn17CvpiuSBsltc-5" value="Eth1/51" style="text;html=1;align=center;verticalAlign=middle;resizable=0;points=[];autosize=1;" parent="1" vertex="1">
          <mxGeometry x="443" y="415" width="60" height="20" as="geometry" />
        </mxCell>
        <mxCell id="RDKQKIn17CvpiuSBsltc-9" value="Eth1/51" style="text;html=1;align=center;verticalAlign=middle;resizable=0;points=[];autosize=1;" parent="1" vertex="1">
          <mxGeometry x="203" y="415" width="60" height="20" as="geometry" />
        </mxCell>
        <mxCell id="eg7Gd9BjpVtbM1bQ0SC5-29" value="" style="ellipse;whiteSpace=wrap;html=1;" parent="1" vertex="1">
          <mxGeometry x="671" y="577" width="79" height="10" as="geometry" />
        </mxCell>
        <mxCell id="eg7Gd9BjpVtbM1bQ0SC5-14" value="" style="ellipse;whiteSpace=wrap;html=1;rotation=-90;" parent="1" vertex="1">
          <mxGeometry x="635.5" y="525" width="36.5" height="10" as="geometry" />
        </mxCell>
        <mxCell id="TA1b77W6NPm8kg9r0I7c-41" value="" style="ellipse;whiteSpace=wrap;html=1;" parent="1" vertex="1">
          <mxGeometry x="388.5" y="299" width="68" height="10" as="geometry" />
        </mxCell>
        <mxCell id="TA1b77W6NPm8kg9r0I7c-40" value="" style="ellipse;whiteSpace=wrap;html=1;" parent="1" vertex="1">
          <mxGeometry x="190.5" y="299" width="68" height="10" as="geometry" />
        </mxCell>
        <mxCell id="TA1b77W6NPm8kg9r0I7c-15" value="" style="ellipse;whiteSpace=wrap;html=1;" parent="1" vertex="1">
          <mxGeometry x="190.5" y="610" width="50" height="10" as="geometry" />
        </mxCell>
        <mxCell id="TA1b77W6NPm8kg9r0I7c-11" value="" style="ellipse;whiteSpace=wrap;html=1;" parent="1" vertex="1">
          <mxGeometry x="413.5" y="610" width="50" height="10" as="geometry" />
        </mxCell>
        <mxCell id="TA1b77W6NPm8kg9r0I7c-7" style="edgeStyle=orthogonalEdgeStyle;rounded=0;orthogonalLoop=1;jettySize=auto;html=1;entryX=0.5;entryY=0.98;entryDx=0;entryDy=0;entryPerimeter=0;shape=link;strokeColor=#0000FF;" parent="1" source="TA1b77W6NPm8kg9r0I7c-1" target="TA1b77W6NPm8kg9r0I7c-3" edge="1">
          <mxGeometry relative="1" as="geometry" />
        </mxCell>
        <mxCell id="TA1b77W6NPm8kg9r0I7c-10" style="rounded=0;orthogonalLoop=1;jettySize=auto;html=1;exitX=1;exitY=0;exitDx=0;exitDy=0;exitPerimeter=0;entryX=0;entryY=0.98;entryDx=0;entryDy=0;entryPerimeter=0;shape=link;strokeColor=#0000FF;" parent="1" source="TA1b77W6NPm8kg9r0I7c-1" target="TA1b77W6NPm8kg9r0I7c-4" edge="1">
          <mxGeometry relative="1" as="geometry" />
        </mxCell>
        <mxCell id="Xf1OnpS6K2WvkpgggGJM-3" style="edgeStyle=orthogonalEdgeStyle;rounded=0;orthogonalLoop=1;jettySize=auto;html=1;exitX=0.5;exitY=1;exitDx=0;exitDy=0;exitPerimeter=0;fillColor=#60a917;strokeColor=#2D7600;shape=link;entryX=0;entryY=0.5;entryDx=0;entryDy=0;entryPerimeter=0;" parent="1" source="TA1b77W6NPm8kg9r0I7c-1" target="Xf1OnpS6K2WvkpgggGJM-1" edge="1">
          <mxGeometry relative="1" as="geometry">
            <mxPoint x="260" y="720" as="targetPoint" />
            <Array as="points">
              <mxPoint x="202" y="720" />
              <mxPoint x="289" y="720" />
            </Array>
          </mxGeometry>
        </mxCell>
        <mxCell id="TA1b77W6NPm8kg9r0I7c-1" value="" style="shape=mxgraph.cisco.servers.standard_host;html=1;pointerEvents=1;dashed=0;fillColor=#036897;strokeColor=#ffffff;strokeWidth=2;verticalLabelPosition=bottom;verticalAlign=top;align=center;outlineConnect=0;" parent="1" vertex="1">
          <mxGeometry x="180.5" y="630" width="43" height="62" as="geometry" />
        </mxCell>
        <mxCell id="TA1b77W6NPm8kg9r0I7c-9" style="rounded=0;orthogonalLoop=1;jettySize=auto;html=1;exitX=0.17;exitY=0.07;exitDx=0;exitDy=0;exitPerimeter=0;shape=link;strokeColor=#0000FF;" parent="1" source="TA1b77W6NPm8kg9r0I7c-2" target="TA1b77W6NPm8kg9r0I7c-3" edge="1">
          <mxGeometry relative="1" as="geometry" />
        </mxCell>
        <mxCell id="TA1b77W6NPm8kg9r0I7c-26" style="edgeStyle=orthogonalEdgeStyle;shape=link;rounded=0;orthogonalLoop=1;jettySize=auto;html=1;exitX=0.5;exitY=0;exitDx=0;exitDy=0;exitPerimeter=0;entryX=0.5;entryY=0.98;entryDx=0;entryDy=0;entryPerimeter=0;strokeColor=#0000FF;" parent="1" source="-m4TFduSaG5o08_VPAXe-14" target="TA1b77W6NPm8kg9r0I7c-4" edge="1">
          <mxGeometry relative="1" as="geometry" />
        </mxCell>
        <mxCell id="Xf1OnpS6K2WvkpgggGJM-4" style="edgeStyle=orthogonalEdgeStyle;rounded=0;orthogonalLoop=1;jettySize=auto;html=1;entryX=1;entryY=0;entryDx=0;entryDy=0;entryPerimeter=0;fillColor=#60a917;strokeColor=#2D7600;shape=link;" parent="1" source="TA1b77W6NPm8kg9r0I7c-2" target="Xf1OnpS6K2WvkpgggGJM-1" edge="1">
          <mxGeometry relative="1" as="geometry">
            <Array as="points">
              <mxPoint x="440" y="720" />
            </Array>
          </mxGeometry>
        </mxCell>
        <mxCell id="TA1b77W6NPm8kg9r0I7c-2" value="" style="shape=mxgraph.cisco.servers.standard_host;html=1;pointerEvents=1;dashed=0;fillColor=#036897;strokeColor=#ffffff;strokeWidth=2;verticalLabelPosition=bottom;verticalAlign=top;align=center;outlineConnect=0;" parent="1" vertex="1">
          <mxGeometry x="420.5" y="630" width="43" height="62" as="geometry" />
        </mxCell>
        <mxCell id="TA1b77W6NPm8kg9r0I7c-30" style="edgeStyle=orthogonalEdgeStyle;shape=link;rounded=0;orthogonalLoop=1;jettySize=auto;html=1;entryX=0.5;entryY=1;entryDx=0;entryDy=0;entryPerimeter=0;strokeColor=#FF0000;" parent="1" source="-m4TFduSaG5o08_VPAXe-2" target="TA1b77W6NPm8kg9r0I7c-27" edge="1">
          <mxGeometry relative="1" as="geometry" />
        </mxCell>
        <mxCell id="TA1b77W6NPm8kg9r0I7c-39" style="shape=link;rounded=0;orthogonalLoop=1;jettySize=auto;html=1;exitX=1;exitY=0;exitDx=0;exitDy=0;exitPerimeter=0;entryX=0;entryY=1;entryDx=0;entryDy=0;entryPerimeter=0;strokeColor=#FF0000;" parent="1" source="TA1b77W6NPm8kg9r0I7c-3" target="TA1b77W6NPm8kg9r0I7c-28" edge="1">
          <mxGeometry relative="1" as="geometry" />
        </mxCell>
        <mxCell id="TA1b77W6NPm8kg9r0I7c-42" style="edgeStyle=orthogonalEdgeStyle;shape=link;rounded=0;orthogonalLoop=1;jettySize=auto;html=1;strokeColor=#00FF00;" parent="1" source="TA1b77W6NPm8kg9r0I7c-3" target="TA1b77W6NPm8kg9r0I7c-4" edge="1">
          <mxGeometry relative="1" as="geometry" />
        </mxCell>
        <mxCell id="TA1b77W6NPm8kg9r0I7c-29" style="edgeStyle=orthogonalEdgeStyle;shape=link;rounded=0;orthogonalLoop=1;jettySize=auto;html=1;strokeColor=#FF0000;" parent="1" source="-m4TFduSaG5o08_VPAXe-7" target="TA1b77W6NPm8kg9r0I7c-28" edge="1">
          <mxGeometry relative="1" as="geometry" />
        </mxCell>
        <mxCell id="TA1b77W6NPm8kg9r0I7c-38" style="shape=link;rounded=0;orthogonalLoop=1;jettySize=auto;html=1;exitX=0.16;exitY=0.23;exitDx=0;exitDy=0;exitPerimeter=0;entryX=0.95;entryY=0.94;entryDx=0;entryDy=0;entryPerimeter=0;strokeColor=#FF0000;" parent="1" source="TA1b77W6NPm8kg9r0I7c-4" target="TA1b77W6NPm8kg9r0I7c-27" edge="1">
          <mxGeometry relative="1" as="geometry" />
        </mxCell>
        <mxCell id="TA1b77W6NPm8kg9r0I7c-18" style="edgeStyle=orthogonalEdgeStyle;rounded=0;orthogonalLoop=1;jettySize=auto;html=1;entryX=0.98;entryY=0.5;entryDx=0;entryDy=0;entryPerimeter=0;strokeColor=#FF8000;shape=link;" parent="1" source="TA1b77W6NPm8kg9r0I7c-5" target="TA1b77W6NPm8kg9r0I7c-4" edge="1">
          <mxGeometry relative="1" as="geometry" />
        </mxCell>
        <mxCell id="TA1b77W6NPm8kg9r0I7c-20" style="edgeStyle=orthogonalEdgeStyle;rounded=0;orthogonalLoop=1;jettySize=auto;html=1;entryX=0.98;entryY=0.5;entryDx=0;entryDy=0;entryPerimeter=0;strokeColor=#FF8000;shape=link;" parent="1" source="TA1b77W6NPm8kg9r0I7c-6" target="TA1b77W6NPm8kg9r0I7c-3" edge="1">
          <mxGeometry relative="1" as="geometry">
            <Array as="points">
              <mxPoint x="240" y="540" />
            </Array>
          </mxGeometry>
        </mxCell>
        <mxCell id="TA1b77W6NPm8kg9r0I7c-5" value="" style="shape=mxgraph.cisco.security.firewall;html=1;pointerEvents=1;dashed=0;fillColor=#036897;strokeColor=#ffffff;strokeWidth=2;verticalLabelPosition=bottom;verticalAlign=top;align=center;outlineConnect=0;" parent="1" vertex="1">
          <mxGeometry x="672" y="490" width="29" height="67" as="geometry" />
        </mxCell>
        <mxCell id="TA1b77W6NPm8kg9r0I7c-6" value="" style="shape=mxgraph.cisco.security.firewall;html=1;pointerEvents=1;dashed=0;fillColor=#036897;strokeColor=#ffffff;strokeWidth=2;verticalLabelPosition=bottom;verticalAlign=top;align=center;outlineConnect=0;" parent="1" vertex="1">
          <mxGeometry x="722" y="490" width="29" height="67" as="geometry" />
        </mxCell>
        <mxCell id="Xf1OnpS6K2WvkpgggGJM-37" style="edgeStyle=orthogonalEdgeStyle;shape=link;rounded=0;orthogonalLoop=1;jettySize=auto;html=1;exitX=0.5;exitY=0;exitDx=0;exitDy=0;exitPerimeter=0;entryX=0.5;entryY=1;entryDx=0;entryDy=0;entryPerimeter=0;" parent="1" source="TA1b77W6NPm8kg9r0I7c-27" target="Xf1OnpS6K2WvkpgggGJM-33" edge="1">
          <mxGeometry relative="1" as="geometry" />
        </mxCell>
        <mxCell id="TA1b77W6NPm8kg9r0I7c-27" value="" style="shape=mxgraph.cisco.switches.layer_3_switch;html=1;pointerEvents=1;dashed=0;fillColor=#036897;strokeColor=#ffffff;strokeWidth=2;verticalLabelPosition=bottom;verticalAlign=top;align=center;outlineConnect=0;" parent="1" vertex="1">
          <mxGeometry x="170" y="230" width="64" height="64" as="geometry" />
        </mxCell>
        <mxCell id="Xf1OnpS6K2WvkpgggGJM-38" style="edgeStyle=orthogonalEdgeStyle;shape=link;rounded=0;orthogonalLoop=1;jettySize=auto;html=1;exitX=0.5;exitY=0;exitDx=0;exitDy=0;exitPerimeter=0;entryX=0.5;entryY=1;entryDx=0;entryDy=0;entryPerimeter=0;" parent="1" source="TA1b77W6NPm8kg9r0I7c-28" target="Xf1OnpS6K2WvkpgggGJM-34" edge="1">
          <mxGeometry relative="1" as="geometry" />
        </mxCell>
        <mxCell id="TA1b77W6NPm8kg9r0I7c-28" value="" style="shape=mxgraph.cisco.switches.layer_3_switch;html=1;pointerEvents=1;dashed=0;fillColor=#036897;strokeColor=#ffffff;strokeWidth=2;verticalLabelPosition=bottom;verticalAlign=top;align=center;outlineConnect=0;" parent="1" vertex="1">
          <mxGeometry x="410" y="230" width="64" height="64" as="geometry" />
        </mxCell>
        <mxCell id="TA1b77W6NPm8kg9r0I7c-32" value="ToR_SW2" style="text;html=1;align=center;verticalAlign=middle;resizable=0;points=[];autosize=1;" parent="1" vertex="1">
          <mxGeometry x="100" y="440" width="70" height="20" as="geometry" />
        </mxCell>
        <mxCell id="TA1b77W6NPm8kg9r0I7c-33" value="ToR_SW1" style="text;html=1;align=center;verticalAlign=middle;resizable=0;points=[];autosize=1;" parent="1" vertex="1">
          <mxGeometry x="480" y="440" width="70" height="20" as="geometry" />
        </mxCell>
        <mxCell id="TA1b77W6NPm8kg9r0I7c-34" value="Aggregation_SW2" style="text;html=1;align=center;verticalAlign=middle;resizable=0;points=[];autosize=1;" parent="1" vertex="1">
          <mxGeometry x="60" y="252" width="110" height="20" as="geometry" />
        </mxCell>
        <mxCell id="TA1b77W6NPm8kg9r0I7c-35" value="Aggregation_SW1" style="text;html=1;align=center;verticalAlign=middle;resizable=0;points=[];autosize=1;" parent="1" vertex="1">
          <mxGeometry x="474" y="252" width="110" height="20" as="geometry" />
        </mxCell>
        <mxCell id="TA1b77W6NPm8kg9r0I7c-36" value="Control Node" style="text;html=1;align=center;verticalAlign=middle;resizable=0;points=[];autosize=1;" parent="1" vertex="1">
          <mxGeometry x="85" y="640" width="90" height="20" as="geometry" />
        </mxCell>
        <mxCell id="TA1b77W6NPm8kg9r0I7c-37" value="FW cluster" style="text;html=1;align=center;verticalAlign=middle;resizable=0;points=[];autosize=1;" parent="1" vertex="1">
          <mxGeometry x="681" y="470" width="70" height="20" as="geometry" />
        </mxCell>
        <mxCell id="TA1b77W6NPm8kg9r0I7c-43" value="VPC peer link" style="text;html=1;align=center;verticalAlign=middle;resizable=0;points=[];autosize=1;" parent="1" vertex="1">
          <mxGeometry x="270" y="450" width="90" height="20" as="geometry" />
        </mxCell>
        <mxCell id="TA1b77W6NPm8kg9r0I7c-46" value="&lt;span style=&quot;font-family: &amp;#34;calibri&amp;#34; , sans-serif ; text-transform: uppercase&quot;&gt;&lt;font style=&quot;font-size: 10px&quot; color=&quot;#0000ff&quot;&gt;CTRL_PXE_VLAN&lt;br&gt;ctrl_mgmt_vlan, ctrl_pub_api_vlan,&lt;br&gt;ctrl_sto_acc_vlan, CTRL_ext_mgmt_vlan&lt;br&gt;CTRL_INFRA_OUT_VLAN&lt;br&gt;&lt;/font&gt;&lt;/span&gt;" style="whiteSpace=wrap;html=1;strokeColor=#0000FF;" parent="1" vertex="1">
          <mxGeometry x="75.5" y="497" width="115" height="90" as="geometry" />
        </mxCell>
        <mxCell id="TA1b77W6NPm8kg9r0I7c-48" value="&lt;font style=&quot;font-size: 10px&quot;&gt;&lt;font style=&quot;font-size: 10px&quot;&gt;&lt;font face=&quot;calibri, sans-serif&quot; style=&quot;color: rgb(0 , 0 , 255) ; font-size: 10px&quot;&gt;&lt;span style=&quot;text-transform: uppercase&quot;&gt;CTRL_PXE_VLAN&lt;br&gt;ctrl_mgmt_vlan, ctrl_pub_api_vlan,&lt;/span&gt;&lt;/font&gt;&lt;br&gt;&lt;font face=&quot;calibri, sans-serif&quot; style=&quot;color: rgb(0 , 0 , 255) ; font-size: 10px&quot;&gt;&lt;span style=&quot;text-transform: uppercase&quot;&gt;ctrl_sto_acc_vlan, CTRL_ext_mgmt_vlan,&lt;br&gt;CTRL_INFRA_OUT_VLAN,&lt;/span&gt;&lt;/font&gt;&lt;br&gt;&lt;font face=&quot;calibri, sans-serif&quot; style=&quot;font-size: 10px&quot; color=&quot;#ff0000&quot;&gt;&lt;span style=&quot;text-transform: uppercase&quot;&gt;EXT_MGMT_OUT_VLAN,&lt;br&gt;EXT_PUB_API_VLAN, INFRA_OUT_VLAN&lt;/span&gt;&lt;/font&gt;&lt;/font&gt;&lt;/font&gt;&lt;font style=&quot;font-size: 10px&quot; color=&quot;#0000ff&quot;&gt;&lt;br&gt;&lt;/font&gt;" style="whiteSpace=wrap;html=1;strokeColor=#FF8000;" parent="1" vertex="1">
          <mxGeometry x="520" y="465" width="110" height="130" as="geometry" />
        </mxCell>
        <mxCell id="TA1b77W6NPm8kg9r0I7c-49" value="&lt;span style=&quot;color: rgb(255 , 0 , 0) ; font-family: &amp;#34;calibri&amp;#34; , sans-serif ; font-size: 10px ; text-transform: uppercase&quot;&gt;EXT_MGMT_OUT_VLAN,&lt;/span&gt;&lt;br style=&quot;color: rgb(255 , 0 , 0) ; font-family: &amp;#34;calibri&amp;#34; , sans-serif ; font-size: 10px ; text-transform: uppercase&quot;&gt;&lt;span style=&quot;color: rgb(255 , 0 , 0) ; font-family: &amp;#34;calibri&amp;#34; , sans-serif ; font-size: 10px ; text-transform: uppercase&quot;&gt;EXT_PUB_API_VLAN,&lt;br&gt;INFRA_OUT_VLAN&lt;/span&gt;&lt;font style=&quot;font-size: 10px&quot; color=&quot;#0000ff&quot;&gt;&lt;br&gt;&lt;/font&gt;" style="whiteSpace=wrap;html=1;strokeColor=#FF0000;" parent="1" vertex="1">
          <mxGeometry x="370" y="350" width="105" height="50" as="geometry" />
        </mxCell>
        <mxCell id="Xf1OnpS6K2WvkpgggGJM-5" style="edgeStyle=orthogonalEdgeStyle;rounded=0;orthogonalLoop=1;jettySize=auto;html=1;fillColor=#60a917;strokeColor=#2D7600;shape=link;entryX=0;entryY=0.5;entryDx=0;entryDy=0;entryPerimeter=0;" parent="1" source="Xf1OnpS6K2WvkpgggGJM-1" target="Xf1OnpS6K2WvkpgggGJM-33" edge="1">
          <mxGeometry relative="1" as="geometry">
            <mxPoint x="-35.5" y="273" as="targetPoint" />
            <Array as="points">
              <mxPoint x="-30" y="805" />
              <mxPoint x="-30" y="90" />
            </Array>
          </mxGeometry>
        </mxCell>
        <mxCell id="Xf1OnpS6K2WvkpgggGJM-1" value="" style="shape=mxgraph.cisco.switches.layer_2_remote_switch;html=1;pointerEvents=1;dashed=0;fillColor=#60a917;strokeColor=#2D7600;strokeWidth=2;verticalLabelPosition=bottom;verticalAlign=top;align=center;outlineConnect=0;fontColor=#ffffff;" parent="1" vertex="1">
          <mxGeometry x="289" y="720" width="71" height="30" as="geometry" />
        </mxCell>
        <mxCell id="Xf1OnpS6K2WvkpgggGJM-8" value="OOB SW" style="text;html=1;align=center;verticalAlign=middle;resizable=0;points=[];autosize=1;" parent="1" vertex="1">
          <mxGeometry x="300" y="700" width="60" height="20" as="geometry" />
        </mxCell>
        <mxCell id="Xf1OnpS6K2WvkpgggGJM-9" value="IPMI" style="text;html=1;align=center;verticalAlign=middle;resizable=0;points=[];autosize=1;" parent="1" vertex="1">
          <mxGeometry x="163" y="692" width="40" height="20" as="geometry" />
        </mxCell>
        <mxCell id="Xf1OnpS6K2WvkpgggGJM-10" value="IPMI" style="text;html=1;align=center;verticalAlign=middle;resizable=0;points=[];autosize=1;" parent="1" vertex="1">
          <mxGeometry x="403" y="692" width="40" height="20" as="geometry" />
        </mxCell>
        <mxCell id="Xf1OnpS6K2WvkpgggGJM-11" value="IPMI" style="text;html=1;align=center;verticalAlign=middle;resizable=0;points=[];autosize=1;" parent="1" vertex="1">
          <mxGeometry x="681" y="557" width="40" height="20" as="geometry" />
        </mxCell>
        <mxCell id="Xf1OnpS6K2WvkpgggGJM-14" value="&lt;span style=&quot;color: rgba(0 , 0 , 0 , 0) ; font-family: monospace ; font-size: 0px&quot;&gt;%3CmxGraphModel%3E%3Croot%3E%3CmxCell%20id%3D%220%22%2F%3E%3CmxCell%20id%3D%221%22%20parent%3D%220%22%2F%3E%3CmxCell%20id%3D%222%22%20value%3D%2210.7.10.3%2F24%22%20style%3D%22text%3Bhtml%3D1%3Balign%3Dcenter%3BverticalAlign%3Dmiddle%3Bresizable%3D0%3Bpoints%3D%5B%5D%3Bautosize%3D1%3B%22%20vertex%3D%221%22%20parent%3D%221%22%3E%3CmxGeometry%20x%3D%22199.5%22%20y%3D%22540%22%20width%3D%2280%22%20height%3D%2220%22%20as%3D%22geometry%22%2F%3E%3C%2FmxCell%3E%3C%2Froot%3E%3C%2FmxGraphModel%3E&lt;/span&gt;" style="text;html=1;align=center;verticalAlign=middle;resizable=0;points=[];autosize=1;" parent="1" vertex="1">
          <mxGeometry x="330" y="850" width="20" height="20" as="geometry" />
        </mxCell>
        <mxCell id="Xf1OnpS6K2WvkpgggGJM-33" value="" style="shape=mxgraph.cisco.routers.atm_router;html=1;pointerEvents=1;dashed=0;fillColor=#036897;strokeColor=#ffffff;strokeWidth=2;verticalLabelPosition=bottom;verticalAlign=top;align=center;outlineConnect=0;" parent="1" vertex="1">
          <mxGeometry x="163" y="63.5" width="78" height="53" as="geometry" />
        </mxCell>
        <mxCell id="Xf1OnpS6K2WvkpgggGJM-34" value="" style="shape=mxgraph.cisco.routers.atm_router;html=1;pointerEvents=1;dashed=0;fillColor=#036897;strokeColor=#ffffff;strokeWidth=2;verticalLabelPosition=bottom;verticalAlign=top;align=center;outlineConnect=0;" parent="1" vertex="1">
          <mxGeometry x="403" y="63.5" width="78" height="53" as="geometry" />
        </mxCell>
        <mxCell id="Xf1OnpS6K2WvkpgggGJM-35" value="CE router2" style="text;html=1;align=center;verticalAlign=middle;resizable=0;points=[];autosize=1;" parent="1" vertex="1">
          <mxGeometry x="85" y="96.5" width="70" height="20" as="geometry" />
        </mxCell>
        <mxCell id="Xf1OnpS6K2WvkpgggGJM-36" value="CE router1" style="text;html=1;align=center;verticalAlign=middle;resizable=0;points=[];autosize=1;" parent="1" vertex="1">
          <mxGeometry x="479.5" y="96.5" width="70" height="20" as="geometry" />
        </mxCell>
        <mxCell id="-m4TFduSaG5o08_VPAXe-5" style="edgeStyle=orthogonalEdgeStyle;shape=link;rounded=0;orthogonalLoop=1;jettySize=auto;html=1;entryX=0.5;entryY=1;entryDx=0;entryDy=0;entryPerimeter=0;strokeColor=#FF0000;" parent="1" source="TA1b77W6NPm8kg9r0I7c-3" target="-m4TFduSaG5o08_VPAXe-2" edge="1">
          <mxGeometry relative="1" as="geometry">
            <mxPoint x="202" y="440" as="sourcePoint" />
            <mxPoint x="202" y="294" as="targetPoint" />
          </mxGeometry>
        </mxCell>
        <mxCell id="-m4TFduSaG5o08_VPAXe-8" style="edgeStyle=orthogonalEdgeStyle;shape=link;rounded=0;orthogonalLoop=1;jettySize=auto;html=1;strokeColor=#FF0000;" parent="1" source="TA1b77W6NPm8kg9r0I7c-4" target="-m4TFduSaG5o08_VPAXe-7" edge="1">
          <mxGeometry relative="1" as="geometry">
            <mxPoint x="442" y="440" as="sourcePoint" />
            <mxPoint x="442" y="294" as="targetPoint" />
          </mxGeometry>
        </mxCell>
        <mxCell id="-m4TFduSaG5o08_VPAXe-15" style="edgeStyle=orthogonalEdgeStyle;shape=link;rounded=0;orthogonalLoop=1;jettySize=auto;html=1;exitX=0.5;exitY=0;exitDx=0;exitDy=0;exitPerimeter=0;entryX=0.5;entryY=0.98;entryDx=0;entryDy=0;entryPerimeter=0;strokeColor=#0000FF;" parent="1" source="TA1b77W6NPm8kg9r0I7c-2" target="-m4TFduSaG5o08_VPAXe-14" edge="1">
          <mxGeometry relative="1" as="geometry">
            <mxPoint x="442" y="630" as="sourcePoint" />
            <mxPoint x="442" y="469.4" as="targetPoint" />
          </mxGeometry>
        </mxCell>
        <mxCell id="-m4TFduSaG5o08_VPAXe-19" value="vPC member ports" style="rounded=0;whiteSpace=wrap;html=1;fillColor=#ffff88;strokeColor=#36393d;" parent="1" vertex="1">
          <mxGeometry x="40" y="380" width="110" height="20" as="geometry" />
        </mxCell>
        <mxCell id="-m4TFduSaG5o08_VPAXe-20" value="" style="endArrow=classic;startArrow=classic;html=1;entryX=1;entryY=1;entryDx=0;entryDy=0;" parent="1" target="-m4TFduSaG5o08_VPAXe-19" edge="1">
          <mxGeometry width="50" height="50" relative="1" as="geometry">
            <mxPoint x="192" y="430" as="sourcePoint" />
            <mxPoint x="132" y="410" as="targetPoint" />
          </mxGeometry>
        </mxCell>
        <mxCell id="TA1b77W6NPm8kg9r0I7c-3" value="" style="shape=mxgraph.cisco.switches.workgroup_switch;html=1;pointerEvents=1;dashed=0;fillColor=#036897;strokeColor=#ffffff;strokeWidth=2;verticalLabelPosition=bottom;verticalAlign=top;align=center;outlineConnect=0;" parent="1" vertex="1">
          <mxGeometry x="162" y="440" width="80" height="30" as="geometry" />
        </mxCell>
        <mxCell id="-m4TFduSaG5o08_VPAXe-2" value="45" style="whiteSpace=wrap;html=1;fillColor=#ffff88;strokeColor=#36393d;" parent="1" vertex="1">
          <mxGeometry x="192" y="435" width="20" height="10" as="geometry" />
        </mxCell>
        <mxCell id="-m4TFduSaG5o08_VPAXe-12" value="44" style="whiteSpace=wrap;html=1;fillColor=#ffff88;strokeColor=#36393d;" parent="1" vertex="1">
          <mxGeometry x="234" y="435" width="20" height="10" as="geometry" />
        </mxCell>
        <mxCell id="-m4TFduSaG5o08_VPAXe-6" value="" style="whiteSpace=wrap;html=1;fillColor=#ffff88;strokeColor=#36393d;" parent="1" vertex="1">
          <mxGeometry x="192" y="465" width="20" height="10" as="geometry" />
        </mxCell>
        <mxCell id="-m4TFduSaG5o08_VPAXe-13" value="" style="whiteSpace=wrap;html=1;fillColor=#ffff88;strokeColor=#36393d;" parent="1" vertex="1">
          <mxGeometry x="150" y="465" width="20" height="10" as="geometry" />
        </mxCell>
        <mxCell id="-m4TFduSaG5o08_VPAXe-7" value="44" style="whiteSpace=wrap;html=1;fillColor=#ffff88;strokeColor=#36393d;" parent="1" vertex="1">
          <mxGeometry x="432" y="430" width="20" height="10" as="geometry" />
        </mxCell>
        <mxCell id="-m4TFduSaG5o08_VPAXe-9" value="45" style="whiteSpace=wrap;html=1;fillColor=#ffff88;strokeColor=#36393d;" parent="1" vertex="1">
          <mxGeometry x="403" y="435" width="20" height="10" as="geometry" />
        </mxCell>
        <mxCell id="eg7Gd9BjpVtbM1bQ0SC5-9" value="" style="whiteSpace=wrap;html=1;fillColor=#ffff88;strokeColor=#36393d;" parent="1" vertex="1">
          <mxGeometry x="474" y="460" width="20" height="10" as="geometry" />
        </mxCell>
        <mxCell id="eg7Gd9BjpVtbM1bQ0SC5-12" value="" style="whiteSpace=wrap;html=1;fillColor=#ffff88;strokeColor=#36393d;" parent="1" vertex="1">
          <mxGeometry x="234" y="460" width="20" height="10" as="geometry" />
        </mxCell>
        <mxCell id="eg7Gd9BjpVtbM1bQ0SC5-26" style="edgeStyle=orthogonalEdgeStyle;rounded=0;orthogonalLoop=1;jettySize=auto;html=1;fillColor=#60a917;strokeColor=#2D7600;shape=link;exitX=0.296;exitY=1;exitDx=0;exitDy=0;exitPerimeter=0;" parent="1" source="Xf1OnpS6K2WvkpgggGJM-1" target="Xf1OnpS6K2WvkpgggGJM-34" edge="1">
          <mxGeometry relative="1" as="geometry">
            <mxPoint x="334.5" y="760" as="sourcePoint" />
            <mxPoint x="173" y="100" as="targetPoint" />
            <Array as="points">
              <mxPoint x="310" y="815" />
              <mxPoint x="-20" y="815" />
              <mxPoint x="-20" y="60" />
              <mxPoint x="442" y="60" />
            </Array>
          </mxGeometry>
        </mxCell>
        <mxCell id="eg7Gd9BjpVtbM1bQ0SC5-27" style="edgeStyle=orthogonalEdgeStyle;rounded=0;orthogonalLoop=1;jettySize=auto;html=1;fillColor=#fa6800;strokeColor=#C73500;shape=link;exitX=0.5;exitY=1;exitDx=0;exitDy=0;exitPerimeter=0;entryX=1;entryY=0.5;entryDx=0;entryDy=0;entryPerimeter=0;" parent="1" source="TA1b77W6NPm8kg9r0I7c-6" target="Xf1OnpS6K2WvkpgggGJM-1" edge="1">
          <mxGeometry relative="1" as="geometry">
            <Array as="points">
              <mxPoint x="737" y="750" />
              <mxPoint x="360" y="750" />
            </Array>
            <mxPoint x="701" y="669" as="sourcePoint" />
            <mxPoint x="621" y="712" as="targetPoint" />
          </mxGeometry>
        </mxCell>
        <mxCell id="eg7Gd9BjpVtbM1bQ0SC5-28" style="edgeStyle=orthogonalEdgeStyle;rounded=0;orthogonalLoop=1;jettySize=auto;html=1;fillColor=#fa6800;strokeColor=#C73500;shape=link;exitX=-0.037;exitY=0.184;exitDx=0;exitDy=0;exitPerimeter=0;entryX=1;entryY=0.5;entryDx=0;entryDy=0;entryPerimeter=0;" parent="1" source="Xf1OnpS6K2WvkpgggGJM-11" target="Xf1OnpS6K2WvkpgggGJM-1" edge="1">
          <mxGeometry relative="1" as="geometry">
            <Array as="points">
              <mxPoint x="680" y="735" />
            </Array>
            <mxPoint x="746.5" y="567" as="sourcePoint" />
            <mxPoint x="370" y="745" as="targetPoint" />
          </mxGeometry>
        </mxCell>
        <mxCell id="eg7Gd9BjpVtbM1bQ0SC5-30" value="OOB &amp;amp; IPMI VLANs uplinks" style="text;html=1;align=center;verticalAlign=middle;resizable=0;points=[];autosize=1;" parent="1" vertex="1">
          <mxGeometry x="-11" y="780" width="160" height="20" as="geometry" />
        </mxCell>
        <mxCell id="eg7Gd9BjpVtbM1bQ0SC5-31" value="FW to OOB SW to permit CTRL-EXT-MGMT =&amp;gt; IPMI flows" style="text;html=1;align=center;verticalAlign=middle;resizable=0;points=[];autosize=1;" parent="1" vertex="1">
          <mxGeometry x="395" y="750" width="330" height="20" as="geometry" />
        </mxCell>
        <mxCell id="RDKQKIn17CvpiuSBsltc-1" value="Eth1/49" style="text;html=1;align=center;verticalAlign=middle;resizable=0;points=[];autosize=1;" parent="1" vertex="1">
          <mxGeometry x="452" y="289" width="60" height="20" as="geometry" />
        </mxCell>
        <mxCell id="RDKQKIn17CvpiuSBsltc-2" value="Eth1/49" style="text;html=1;align=center;verticalAlign=middle;resizable=0;points=[];autosize=1;" parent="1" vertex="1">
          <mxGeometry x="105" y="289" width="60" height="20" as="geometry" />
        </mxCell>
        <mxCell id="RDKQKIn17CvpiuSBsltc-3" value="Eth1/50" style="text;html=1;align=center;verticalAlign=middle;resizable=0;points=[];autosize=1;" parent="1" vertex="1">
          <mxGeometry x="353.5" y="279" width="60" height="20" as="geometry" />
        </mxCell>
        <mxCell id="RDKQKIn17CvpiuSBsltc-4" value="Eth1/50" style="text;html=1;align=center;verticalAlign=middle;resizable=0;points=[];autosize=1;" parent="1" vertex="1">
          <mxGeometry x="223.5" y="279" width="60" height="20" as="geometry" />
        </mxCell>
        <mxCell id="RDKQKIn17CvpiuSBsltc-10" value="Eth1/52" style="text;html=1;align=center;verticalAlign=middle;resizable=0;points=[];autosize=1;" parent="1" vertex="1">
          <mxGeometry x="143" y="425" width="60" height="20" as="geometry" />
        </mxCell>
        <mxCell id="TA1b77W6NPm8kg9r0I7c-4" value="" style="shape=mxgraph.cisco.switches.workgroup_switch;html=1;pointerEvents=1;dashed=0;fillColor=#036897;strokeColor=#ffffff;strokeWidth=2;verticalLabelPosition=bottom;verticalAlign=top;align=center;outlineConnect=0;" parent="1" vertex="1">
          <mxGeometry x="402" y="440" width="80" height="30" as="geometry" />
        </mxCell>
        <mxCell id="-m4TFduSaG5o08_VPAXe-14" value="" style="whiteSpace=wrap;html=1;fillColor=#ffff88;strokeColor=#36393d;" parent="1" vertex="1">
          <mxGeometry x="432" y="465" width="20" height="10" as="geometry" />
        </mxCell>
        <mxCell id="-m4TFduSaG5o08_VPAXe-16" value="" style="whiteSpace=wrap;html=1;fillColor=#ffff88;strokeColor=#36393d;" parent="1" vertex="1">
          <mxGeometry x="393.5" y="465" width="20" height="10" as="geometry" />
        </mxCell>
        <mxCell id="lm7zrqV2fD7R62COXTC6-1" style="shape=link;rounded=0;orthogonalLoop=1;jettySize=auto;html=1;exitX=0.5;exitY=0;exitDx=0;exitDy=0;exitPerimeter=0;entryX=0.5;entryY=1;entryDx=0;entryDy=0;entryPerimeter=0;" edge="1" parent="1" target="Xf1OnpS6K2WvkpgggGJM-34">
          <mxGeometry relative="1" as="geometry">
            <mxPoint x="212" y="240" as="sourcePoint" />
            <mxPoint x="212" y="126.5" as="targetPoint" />
          </mxGeometry>
        </mxCell>
        <mxCell id="lm7zrqV2fD7R62COXTC6-2" style="shape=link;rounded=0;orthogonalLoop=1;jettySize=auto;html=1;exitX=0.5;exitY=0;exitDx=0;exitDy=0;exitPerimeter=0;entryX=0.5;entryY=1;entryDx=0;entryDy=0;entryPerimeter=0;" edge="1" parent="1" target="Xf1OnpS6K2WvkpgggGJM-33">
          <mxGeometry relative="1" as="geometry">
            <mxPoint x="452" y="240" as="sourcePoint" />
            <mxPoint x="452" y="126.5" as="targetPoint" />
          </mxGeometry>
        </mxCell>
      </root>
    </mxGraphModel>
  </diagram>
</mxfile>
